<?xml version="1.0" encoding="UTF-8"?>
<svg version="1.1" xmlns="http://www.w3.org/2000/svg" width="626" height="626">
<path d="M0 0 C206.58 0 413.16 0 626 0 C626 206.58 626 413.16 626 626 C419.42 626 212.84 626 0 626 C0 419.42 0 212.84 0 0 Z " fill="#FCFCFC" transform="translate(0,0)"/>
<path d="M0 0 C0.33 0 0.66 0 1 0 C1.09796875 0.64066406 1.1959375 1.28132812 1.296875 1.94140625 C2.75492315 10.37546061 5.31260141 16.30859694 12 22 C14.72965512 23.79014592 17.49621683 25.51274931 20.26953125 27.234375 C25.10334342 30.3601019 29.87150471 33.46989073 32 39 C32.30078125 41.69140625 32.30078125 41.69140625 32.3125 44.5625 C32.32925781 45.51253906 32.34601563 46.46257812 32.36328125 47.44140625 C31.94916641 50.35802152 31.27810098 51.2147863 29 53 C28.67 51.35 28.34 49.7 28 48 C24.95723432 47.2707969 22.1327142 46.77960805 19 47 C15.7573869 49.25244453 14.23691627 52.28925118 13 56 C12.00470919 65.68833712 12.85498 72.33902793 19 80 C20.13522942 81.25963812 21.28104524 82.50982001 22.4375 83.75 C26.57176025 88.19455793 28.7954622 93.4409818 31.2265625 98.92578125 C33.15396014 102.26688686 34.65803914 103.23777149 38 105 C38 105.66 38 106.32 38 107 C35.5 107.4375 35.5 107.4375 32 107 C28.69399075 104.65146884 25.861105 101.861105 23 99 C21.33382885 98.95936168 19.66611905 98.957279 18 99 C17.43400243 102.15341501 17.65676447 104.33829851 19.13671875 107.19140625 C24.21308328 114.45564702 31.34245087 118.81586181 40.0234375 120.6328125 C51.21618313 122.0135449 60.97563396 120.8333804 70.4921875 114.28515625 C73.99721137 111.35146411 77.29580135 108.31730325 79 104 C78.78670551 101.25760857 78.78670551 101.25760857 78 99 C74.80051771 99.07803615 72.66953477 99.35075416 70.32421875 101.625 C69.76347656 102.264375 69.20273437 102.90375 68.625 103.5625 C65.60329016 106.87488886 65.60329016 106.87488886 62.77734375 107.4609375 C60.5625 107.4375 60.5625 107.4375 57 107 C57 106.34 57 105.68 57 105 C57.91136719 104.8246875 58.82273437 104.649375 59.76171875 104.46875 C64.10123471 102.50052563 65.0639467 99.67445696 66.8125 95.5 C69.75171512 89.03314985 73.05484406 84.3022174 78.01171875 79.1484375 C83.44058782 73.28227249 84.66553433 67.84341201 84.39453125 59.9140625 C83.83355137 55.77058733 82.55192456 52.32859725 80 49 C76.52648925 46.68432616 75.08600528 46.40412423 71 47 C69.0645852 49.39056942 69.0645852 49.39056942 68 52 C67.01 51.67 66.02 51.34 65 51 C63.24264371 41.50645571 63.24264371 41.50645571 65.5 37.25 C69.40397997 31.58592058 74.74589799 28.1181224 80.5625 24.625 C88.14049399 19.88485561 91.98920899 14.56472384 94.359375 5.98046875 C95 4 95 4 97 1 C99.73781108 6.30003808 102.40779027 11.62720511 105 17 C105.39574219 17.8146875 105.79148437 18.629375 106.19921875 19.46875 C110.66055773 30.4371151 108.76702566 42.84844327 104.42724609 53.44677734 C103.63427925 55.30481208 102.81768565 57.15271018 102 59 C101.2211425 60.89255094 100.44902294 62.78790771 99.6875 64.6875 C99.38199219 65.41324219 99.07648438 66.13898438 98.76171875 66.88671875 C94.88207587 77.6502408 96.8621872 89.49016803 101.171875 99.8046875 C104.74088687 107.5780434 104.74088687 107.5780434 111 113 C111 113.66 111 114.32 111 115 C111.72703125 115.28617187 112.4540625 115.57234375 113.203125 115.8671875 C114.93548957 116.56884354 116.65726127 117.29816157 118.359375 118.0703125 C129.64066138 123.04735061 139.61427572 120.76394633 151 117 C159.94389088 113.41624696 169.61704907 108.29802589 175 100 C175.33425735 97.37374861 175.33425735 97.37374861 175 95 C174.67 94.67 174.34 94.34 174 94 C168.70602769 94.30542148 165.86602713 95.36827755 162 99 C162.03180084 91.3836991 163.57278742 85.55079238 169 80 C174.79238834 75.35776245 180.26430411 74.08565895 187.5 73.125 C201.37644066 70.92860347 213.44418516 66.6468419 224 57 C224.66 57.33 225.32 57.66 226 58 C220.39452023 72.65857763 212.35078313 84.17551342 200 94 C198.28769752 95.61974559 196.62836738 97.2958946 195 99 C194.35289062 99.67546875 193.70578125 100.3509375 193.0390625 101.046875 C174.11824543 121.36185753 164.11565305 143.94286901 158.49316406 170.9597168 C158 173 158 173 157 175 C152.26581508 173.4570064 147.58421713 171.84126345 142.9375 170.05078125 C136.98506832 167.88435733 131.03221348 166.58272933 124.8125 165.4375 C123.82314453 165.24220703 122.83378906 165.04691406 121.81445312 164.84570312 C118.21901083 164.16560406 114.61354956 163.57328115 111 163 C110.22388367 162.87078156 109.44776733 162.74156311 108.64813232 162.60842896 C90.61436726 159.68070669 72.69296961 159.50117347 54.4765625 159.55395508 C51.17291823 159.56310577 47.86998354 159.55629098 44.56640625 159.53344727 C11.69071876 159.30762632 -24.16592592 160.00445366 -54.83056641 173.1328125 C-56.87462267 173.94988293 -58.85434963 174.5216975 -61 175 C-61.16491943 174.22100342 -61.32983887 173.44200684 -61.49975586 172.6394043 C-68.97977888 137.96161919 -83.70669486 113.67513883 -109 89 C-118.3745937 79.8201308 -126.38361296 70.08193519 -129 57 C-127.98292969 57.67095703 -127.98292969 57.67095703 -126.9453125 58.35546875 C-115.33528674 65.89716138 -104.92464447 70.55452775 -91.28759766 73.06884766 C-80.9927429 74.9903842 -74.08670232 77.17027723 -68 86 C-65.78566103 90.02607085 -65.8214785 93.44770187 -66 98 C-67.051875 97.319375 -68.10375 96.63875 -69.1875 95.9375 C-71.90327009 94.3643405 -72.70477974 93.97487487 -75.9375 94.25 C-76.618125 94.4975 -77.29875 94.745 -78 95 C-78.41890218 97.78938212 -78.41890218 97.78938212 -78 101 C-76.00333267 103.66663334 -76.00333267 103.66663334 -73 106 C-72.18015625 106.70962891 -72.18015625 106.70962891 -71.34375 107.43359375 C-60.78335463 116.04747557 -45.95187519 121.88681412 -32.1875 121.35546875 C-22.18418793 119.72993054 -13.8573917 114.11406385 -8 106 C-6.4066256 103.41948456 -5.15481612 100.80235379 -4 98 C-3.69964844 97.29617188 -3.39929688 96.59234375 -3.08984375 95.8671875 C1.65795727 82.83833819 -0.37139651 70.24869539 -6 58 C-6.93410692 55.69448958 -7.85105125 53.38194502 -8.75 51.0625 C-9.15734375 50.04285156 -9.5646875 49.02320313 -9.984375 47.97265625 C-14.13988233 35.80980595 -11.81284713 25.10230015 -6.46875 13.74609375 C-5.45364414 11.71837003 -4.42152209 9.69901228 -3.3671875 7.69140625 C-2.08596405 5.16922637 -1.00687612 2.64185115 0 0 Z " fill="#020202" transform="translate(265,195)"/>
<path d="M0 0 C0.66229614 -0.00282738 1.32459229 -0.00565475 2.00695801 -0.00856781 C5.5264524 -0.02346565 9.04590696 -0.0327489 12.56542969 -0.03710938 C15.40996425 -0.04145168 18.25418824 -0.05518992 21.09863281 -0.078125 C54.29942553 -0.3401584 93.91417661 -0.04811854 123.875 16.203125 C123.26248199 21.86253621 122.2534219 27.24694313 120.875 32.765625 C119.59867325 37.90330259 118.53794767 42.94788358 117.875 48.203125 C116.699375 47.81125 115.52375 47.419375 114.3125 47.015625 C113.06146484 46.60376953 113.06146484 46.60376953 111.78515625 46.18359375 C109.76365867 45.50252544 107.75102831 44.79479072 105.74609375 44.06640625 C98.11395631 41.36317992 90.47558504 39.30157145 82.5625 37.578125 C81.67546387 37.38428223 80.78842773 37.19043945 79.87451172 36.99072266 C77.96879298 36.58932194 76.05920193 36.20605582 74.14697266 35.83691406 C71.85355523 35.39267353 69.56698102 34.91229591 67.28662109 34.40527344 C53.1842141 31.47123531 38.87670353 31.6756104 24.53955078 31.70214844 C21.61757855 31.70682785 18.69670071 31.69319081 15.77490234 31.66113281 C-16.84152321 31.30776987 -48.78564635 35.5218144 -79.125 48.203125 C-80.10537182 43.97423677 -81.08408689 39.7449668 -82.0625 35.515625 C-82.47918945 33.71834961 -82.47918945 33.71834961 -82.90429688 31.88476562 C-83.17177734 30.72783203 -83.43925781 29.57089844 -83.71484375 28.37890625 C-83.96097412 27.31583252 -84.20710449 26.25275879 -84.46069336 25.1574707 C-85.05546178 22.51237967 -85.60657346 19.8640944 -86.125 17.203125 C-63.88362511 1.32123551 -26.31911754 0.08888178 0 0 Z " fill="#020202" transform="translate(294.125,361.796875)"/>
<path d="M0 0 C1.94391596 2.42989495 3.52004928 4.89847541 5 7.625 C6.76231859 11.15428119 6.76231859 11.15428119 10 13 C10 13.66 10 14.32 10 15 C10.721875 15.226875 11.44375 15.45375 12.1875 15.6875 C15.7264417 17.33900613 17.62729104 18.88158251 20 22 C20.41652787 24.80635652 20.24231592 27.14067214 20 30 C18.865625 29.814375 17.73125 29.62875 16.5625 29.4375 C15.386875 29.293125 14.21125 29.14875 13 29 C11.77415709 30.00093413 11.77415709 30.00093413 11.91015625 32.00390625 C12.43578358 40.83174991 16.10229331 45.5590993 22.5625 51.3125 C25.22998515 53.48798234 27.97184526 55.34827923 31 57 C30.4375 58.875 30.4375 58.875 29 61 C20.42352621 64.89839718 9.82829304 63.90453093 1.125 61 C-0.5914936 60.35463426 -2.30341954 59.69603301 -4 59 C-2.125 53.25 -2.125 53.25 -1 51 C-0.55234228 44.59505103 -0.26988685 38.27823355 -2.5 32.1875 C-5.90252085 22.40120194 -5.18594349 10.37651343 -1 1 C-0.67 0.67 -0.34 0.34 0 0 Z " fill="#060606" transform="translate(214,248)"/>
<path d="M0 0 C4.49409905 4.05350111 5.67326869 9.05941818 6.328125 14.953125 C6.54331648 21.19367778 5.73482961 26.70769784 4 32.6875 C1.87916642 40.00852697 0.3730863 46.2716561 3.5 53.4375 C3.995 54.283125 4.49 55.12875 5 56 C5 56.99 5 57.98 5 59 C-3.3956176 63.59760011 -13.19126988 64.45218253 -22.5 62.125 C-24.69965916 61.13515338 -26.8759863 60.14369968 -29 59 C-27.75945261 55.27835784 -26.57353001 54.8646579 -23.3125 52.8125 C-17.60459927 48.96089363 -13.2089168 44.62675041 -11 38 C-10.93259135 36.43881572 -10.91485544 34.8749748 -10.9375 33.3125 C-10.94652344 32.50425781 -10.95554687 31.69601562 -10.96484375 30.86328125 C-10.97644531 30.24839844 -10.98804688 29.63351562 -11 29 C-14.04386724 28.91773332 -16.07175348 29.02391783 -19 30 C-19.54963584 26.85922376 -19.50664926 24.76694613 -17.72265625 22.06640625 C-14.06993766 17.81732544 -9.9883418 14.21747174 -5.73046875 10.59375 C-2.45848639 7.5802764 -0.80282929 4.33527815 0 0 Z " fill="#040404" transform="translate(411,248)"/>
<path d="M0 0 C2.475 0.495 2.475 0.495 5 1 C4.505 1.61875 4.01 2.2375 3.5 2.875 C1.80777227 4.83880904 1.80777227 4.83880904 2 7 C0.12699975 7.65161012 -1.7485055 8.29602195 -3.625 8.9375 C-4.66914063 9.29714844 -5.71328125 9.65679687 -6.7890625 10.02734375 C-18.32606429 13.52212896 -26.20753337 12.11318216 -37 7 C-36.360625 6.731875 -35.72125 6.46375 -35.0625 6.1875 C-32.66868314 5.11332248 -32.66868314 5.11332248 -32 2 C-31.01 2.66 -30.02 3.32 -29 4 C-20.72313886 6.18397849 -12.09858255 5.45849827 -4 3 C-2.66833802 2.66005108 -1.33537484 2.32505835 0 2 C0 1.34 0 0.68 0 0 Z " fill="#E7E7E7" transform="translate(416,305)"/>
<path d="M0 0 C3.05195625 0.64053403 5.97393669 0.59654463 9.08984375 0.58984375 C10.28351563 0.59242188 11.4771875 0.595 12.70703125 0.59765625 C15.96831726 0.47417771 19.01422709 0.08147632 22.21484375 -0.53515625 C22.87484375 1.11484375 23.53484375 2.76484375 24.21484375 4.46484375 C14.73452757 8.23007571 7.68171689 8.00128389 -2.09765625 5.65234375 C-2.79189697 5.48726318 -3.4861377 5.32218262 -4.20141602 5.15209961 C-7.99156296 4.17267517 -10.85535989 3.0933757 -13.78515625 0.46484375 C-8.97660339 -2.01228954 -5.1057333 -1.53060276 0 0 Z " fill="#E0E0E0" transform="translate(219.78515625,309.53515625)"/>
<path d="M0 0 C0.875 2 0.875 2 1 5 C-0.73653434 7.89066179 -2.80977399 10.44156208 -5 13 C-8 11 -8 11 -9 8 C-11.01508358 7.26676204 -11.01508358 7.26676204 -13 7 C-12.04578192 5.85073734 -11.08647955 4.70569459 -10.125 3.5625 C-9.59132813 2.92441406 -9.05765625 2.28632813 -8.5078125 1.62890625 C-5.63159679 -1.47830088 -3.90872378 -0.92575037 0 0 Z " fill="#EAEAEA" transform="translate(344,294)"/>
<path d="M0 0 C0.66 0.66 1.32 1.32 2 2 C1.67 2.763125 1.34 3.52625 1 4.3125 C-0.17436686 6.99069135 -0.17436686 6.99069135 0 10 C-0.99 10.495 -0.99 10.495 -2 11 C-1.01 11.33 -0.02 11.66 1 12 C1 11.34 1 10.68 1 10 C10.9375 9.41544118 10.9375 9.41544118 15 13 C18.14181818 17.92218182 18.14181818 17.92218182 17.6875 21.375 C17.3471875 22.179375 17.3471875 22.179375 17 23 C15.64737514 20.97106271 14.3144712 18.92886125 13 16.875 C11.30925867 13.95510761 11.30925867 13.95510761 9 13 C6.04230823 12.49989476 6.04230823 12.49989476 3 13 C1.0645852 15.39056942 1.0645852 15.39056942 0 18 C-0.99 17.67 -1.98 17.34 -3 17 C-4.7610915 7.48627741 -4.7610915 7.48627741 -2.0625 2.875 C-1.381875 1.92625 -0.70125 0.9775 0 0 Z " fill="#171717" transform="translate(333,229)"/>
<path d="M0 0 C2.66748598 0.52048507 4.00150384 0.2064817 6.5625 -0.5 C8.5625 0.5 8.5625 0.5 9.875 3.375 C11.74040175 6.82944768 13.19214238 7.67818507 16.5625 9.5 C16.5625 10.16 16.5625 10.82 16.5625 11.5 C14.0625 11.9375 14.0625 11.9375 10.5625 11.5 C7.25649075 9.15146884 4.423605 6.361105 1.5625 3.5 C-0.10367115 3.45936168 -1.77138095 3.457279 -3.4375 3.5 C-3.4375 5.81 -3.4375 8.12 -3.4375 10.5 C-4.4275 10.995 -4.4275 10.995 -5.4375 11.5 C-6.82211538 3.5 -6.82211538 3.5 -5.4375 0.5 C-2.4375 -0.5 -2.4375 -0.5 0 0 Z " fill="#121212" transform="translate(286.4375,290.5)"/>
<path d="M0 0 C0.94875 0.00902344 1.8975 0.01804687 2.875 0.02734375 C3.57625 0.03894531 4.2775 0.05054688 5 0.0625 C5.495 1.0525 5.495 1.0525 6 2.0625 C1.2329861 2.68444991 -3.5356986 3.29028309 -8.30664062 3.88134766 C-9.92894383 4.08462186 -11.55070531 4.29226971 -13.171875 4.50439453 C-15.50391666 4.80876026 -17.83746198 5.09728052 -20.171875 5.3828125 C-20.89493835 5.48063019 -21.61800171 5.57844788 -22.36297607 5.67922974 C-26.17732874 6.12902322 -28.76666282 6.29364896 -32 4.0625 C-29.16700602 3.58125423 -26.33363343 3.10245391 -23.5 2.625 C-22.70851562 2.49029297 -21.91703125 2.35558594 -21.1015625 2.21679688 C-14.07436086 1.0359966 -7.14957078 -0.08936963 0 0 Z " fill="#111111" transform="translate(270,352.9375)"/>
<path d="M0 0 C0.66 0.33 1.32 0.66 2 1 C-0.78979873 8.12289036 -3.72347316 14.64630299 -8 21 C-8.66 20.34 -9.32 19.68 -10 19 C-9.625 15.875 -9.625 15.875 -9 13 C-8.01 12.67 -7.02 12.34 -6 12 C-5.67 11.01 -5.34 10.02 -5 9 C-5.66 9 -6.32 9 -7 9 C-8.32 8.67 -9.64 8.34 -11 8 C-7.37 5.36 -3.74 2.72 0 0 Z " fill="#141414" transform="translate(489,252)"/>
<path d="M0 0 C1.3921875 0.2784375 1.3921875 0.2784375 2.8125 0.5625 C6.01343771 1.24123881 6.01343771 1.24123881 9 0 C11.02392378 0.59006524 13.0209259 1.27356339 15 2 C16.31263325 2.41416418 17.62790412 2.82003556 18.9453125 3.21875 C19.62980469 3.42886719 20.31429688 3.63898438 21.01953125 3.85546875 C22.43032189 4.28734344 23.84179029 4.71700991 25.25390625 5.14453125 C28.6550037 6.19250646 31.88723795 7.25814352 35 9 C34.01 9.66 33.02 10.32 32 11 C29.20703125 10.2421875 29.20703125 10.2421875 25.8125 8.875 C19.68795448 6.4929601 13.56695212 4.77562465 7.15551758 3.34521484 C2.2016904 2.2016904 2.2016904 2.2016904 0 0 Z " fill="#191919" transform="translate(384,357)"/>
<path d="M0 0 C2 3 2 3 1.625 5.6875 C1.41875 6.450625 1.2125 7.21375 1 8 C1.66 7.67 2.32 7.34 3 7 C3.66 7.66 4.32 8.32 5 9 C4.43410156 9.49371094 3.86820312 9.98742187 3.28515625 10.49609375 C2.55167969 11.13675781 1.81820313 11.77742188 1.0625 12.4375 C-0.03384766 13.39462891 -0.03384766 13.39462891 -1.15234375 14.37109375 C-2.12139353 15.22541459 -3.08651175 16.08651175 -4 17 C-6.67058851 17.14115161 -9.32432238 17.04247107 -12 17 C-12 16.34 -12 15.68 -12 15 C-10.61941406 14.70996094 -10.61941406 14.70996094 -9.2109375 14.4140625 C-4.94521415 12.5354836 -4.37247964 10.61887914 -2.625 6.375 C-2.12226563 5.18648438 -1.61953125 3.99796875 -1.1015625 2.7734375 C-0.73804688 1.85820312 -0.37453125 0.94296875 0 0 Z " fill="#1E1E1E" transform="translate(334,285)"/>
<path d="M0 0 C14.44176942 1.4144001 14.44176942 1.4144001 19.53125 3.046875 C19.86125 3.706875 20.19125 4.366875 20.53125 5.046875 C21.85125 5.046875 23.17125 5.046875 24.53125 5.046875 C24.86125 6.036875 25.19125 7.026875 25.53125 8.046875 C15.53125 6.046875 5.53125 4.046875 -4.46875 2.046875 C-2.46875 0.046875 -2.46875 0.046875 0 0 Z " fill="#181818" transform="translate(364.46875,393.953125)"/>
<path d="M0 0 C0.3125 2.3125 0.3125 2.3125 0 5 C-2.87078897 7.23283587 -5.50521984 8.19351227 -9 9 C-8.95359375 9.68707031 -8.9071875 10.37414062 -8.859375 11.08203125 C-8.82328125 11.98308594 -8.7871875 12.88414062 -8.75 13.8125 C-8.70359375 14.70582031 -8.6571875 15.59914063 -8.609375 16.51953125 C-9 19 -9 19 -11.015625 20.82421875 C-11.67046875 21.21222656 -12.3253125 21.60023438 -13 22 C-12.96748072 14.21163281 -11.15717886 8.9059964 -6 3 C-2.45211581 0 -2.45211581 0 0 0 Z " fill="#282828" transform="translate(440,272)"/>
<path d="M0 0 C3.73647845 0.16245558 5.52538742 0.58783644 8.375 3.0625 C8.91125 3.701875 9.4475 4.34125 10 5 C9.34 5.66 8.68 6.32 8 7 C8 6.34 8 5.68 8 5 C6.35 5.66 4.7 6.32 3 7 C3.33 5.68 3.66 4.36 4 3 C3.01 3.99 2.02 4.98 1 6 C1.99 7.485 1.99 7.485 3 9 C2.625 11.1875 2.625 11.1875 2 13 C-0.6183364 10.21801758 -1.92199358 8.66305455 -2.375 4.8125 C-2 2 -2 2 0 0 Z " fill="#EEEEEE" transform="translate(188,288)"/>
<path d="M0 0 C2.48776127 3.31701503 4.36467502 6.33917479 6.25 10 C7.06210937 11.546875 7.06210937 11.546875 7.890625 13.125 C9.03001623 16.07778854 9.18510315 17.133704 8 20 C4.90407165 16.4912812 3.25805377 13.50802601 2 9 C-0.475 10.485 -0.475 10.485 -3 12 C-2.01 8.04 -1.02 4.08 0 0 Z " fill="#222222" transform="translate(361,196)"/>
<path d="M0 0 C1.65 0.33 3.3 0.66 5 1 C4.505 1.61875 4.01 2.2375 3.5 2.875 C1.80777227 4.83880904 1.80777227 4.83880904 2 7 C-3.445 8.485 -3.445 8.485 -9 10 C-8 6 -8 6 -5.0625 3.75 C-2 2 -2 2 0 2 C0 1.34 0 0.68 0 0 Z " fill="#EEEEEE" transform="translate(416,305)"/>
<path d="M0 0 C1.125 2.0625 1.125 2.0625 2 4 C-4.24273068 6.4793824 -9.28299653 7.31985731 -16 7 C-16 6.67 -16 6.34 -16 6 C-12.535 5.505 -12.535 5.505 -9 5 C-9 4.34 -9 3.68 -9 3 C-8.34 3 -7.68 3 -7 3 C-6.67 2.01 -6.34 1.02 -6 0 C-3.42525708 -0.99667468 -2.51072708 -1.25536354 0 0 Z " fill="#DADADA" transform="translate(242,310)"/>
<path d="M0 0 C4.72983659 3.15322439 7.19579257 6.68596829 9 12 C9.29079282 14.45096804 9.20645162 16.5225805 9 19 C5.535 17.02 5.535 17.02 2 15 C2.33 14.34 2.66 13.68 3 13 C3.99 13 4.98 13 6 13 C5.73445312 12.48050781 5.46890625 11.96101563 5.1953125 11.42578125 C3.29301903 7.66979306 1.48040295 3.94774121 0 0 Z " fill="#1E1E1E" transform="translate(190,274)"/>
<path d="M0 0 C3.44725363 2.66378689 4.1815435 5.83331235 5 10 C4.01 11.485 4.01 11.485 3 13 C2.34 11.35 1.68 9.7 1 8 C0.05125 8.78375 -0.8975 9.5675 -1.875 10.375 C-2.40867187 10.81585938 -2.94234375 11.25671875 -3.4921875 11.7109375 C-4.71051161 12.75250992 -5.86660097 13.86660097 -7 15 C-7 11.26610512 -5.62867361 10.32196394 -3.24609375 7.62890625 C-1.45919405 5.29305303 -0.73804235 2.81797989 0 0 Z " fill="#212121" transform="translate(411,248)"/>
<path d="M0 0 C4.455 2.97 4.455 2.97 9 6 C8.01 6.99 7.02 7.98 6 9 C6.99 11.31 7.98 13.62 9 16 C8.34 16.33 7.68 16.66 7 17 C3.60625252 11.40420264 1.28616557 6.43082787 0 0 Z " fill="#151515" transform="translate(136,252)"/>
<path d="M0 0 C2.60186108 2.60186108 2.29810177 3.82354355 2.3125 7.4375 C2.33763672 8.88962891 2.33763672 8.88962891 2.36328125 10.37109375 C1.9533659 13.33747041 1.32042696 14.19386292 -1 16 C-1.33 14.35 -1.66 12.7 -2 11 C-4.31 10.34 -6.62 9.68 -9 9 C-8.01 8.34 -7.02 7.68 -6 7 C-3.3125 7.875 -3.3125 7.875 -1 9 C-1.020625 7.88625 -1.04125 6.7725 -1.0625 5.625 C-1 2 -1 2 0 0 Z " fill="#1F1F1F" transform="translate(295,232)"/>
<path d="M0 0 C5.98551772 1.50170462 11.61255621 2.94226163 17 6 C17 7.65 17 9.3 17 11 C16.34 11 15.68 11 15 11 C14.67 11.66 14.34 12.32 14 13 C14.33 11.02 14.66 9.04 15 7 C14.30519531 6.87753906 13.61039062 6.75507813 12.89453125 6.62890625 C9.73036021 5.9414143 6.75191616 4.98142199 3.6875 3.9375 C2.61886719 3.57527344 1.55023438 3.21304687 0.44921875 2.83984375 C-0.76314453 2.42412109 -0.76314453 2.42412109 -2 2 C-1.34 1.34 -0.68 0.68 0 0 Z " fill="#161616" transform="translate(401,372)"/>
<path d="M0 0 C-0.99 0 -1.98 0 -3 0 C-3 0.66 -3 1.32 -3 2 C-5.78868716 2.72255063 -8.57981708 3.4284512 -11.375 4.125 C-12.1690625 4.33253906 -12.963125 4.54007812 -13.78125 4.75390625 C-15.83428002 5.25846447 -17.91705081 5.63829026 -20 6 C-20.66 5.34 -21.32 4.68 -22 4 C-5.6804001 -1.78709216 -5.6804001 -1.78709216 0 0 Z " fill="#111111" transform="translate(237,359)"/>
<path d="M0 0 C0.66 0.66 1.32 1.32 2 2 C-1.62245715 2.55969677 -5.24813559 3.09467782 -8.875 3.625 C-9.90753906 3.78484375 -10.94007813 3.9446875 -12.00390625 4.109375 C-12.99003906 4.25117188 -13.97617187 4.39296875 -14.9921875 4.5390625 C-15.90339355 4.67521973 -16.81459961 4.81137695 -17.75341797 4.95166016 C-18.49479004 4.9676123 -19.23616211 4.98356445 -20 5 C-20.66 4.34 -21.32 3.68 -22 3 C-19.45953542 2.49311395 -16.91791124 1.99433126 -14.375 1.5 C-13.66214844 1.35691406 -12.94929688 1.21382813 -12.21484375 1.06640625 C-8.10326273 0.27426679 -4.20637351 -0.35368906 0 0 Z " fill="#141414" transform="translate(278,392)"/>
<path d="M0 0 C1.88317708 0.20176897 3.76627374 0.41735067 5.63671875 0.71484375 C9.03629865 1.12504099 12.38470585 0.97391264 15.80078125 0.83984375 C18 1 18 1 21 3 C13.57982365 5.47339212 5.3372924 4.25762843 -2 2 C-1.34 1.34 -0.68 0.68 0 0 Z " fill="#121212" transform="translate(218,315)"/>
<path d="M0 0 C1.9375 0.375 1.9375 0.375 4 1 C5.60127074 4.20254147 5.40701607 6.45314564 5 10 C3.26393366 12.61169163 1.23704394 14.80956115 -1 17 C-1.66 16.34 -2.32 15.68 -3 15 C-2.62746094 14.55269531 -2.25492187 14.10539062 -1.87109375 13.64453125 C1.23020104 9.88942017 1.23020104 9.88942017 1.875 5.25 C1.58625 4.5075 1.2975 3.765 1 3 C0.67 2.01 0.34 1.02 0 0 Z " fill="#131313" transform="translate(342,291)"/>
<path d="M0 0 C3.44747762 -0.33362687 5.99177493 0.27026708 9.1875 1.4375 C14.0792752 3.1833861 18.83840864 3.68750282 24 4 C24 4.33 24 4.66 24 5 C14.98296037 6.47086462 8.42740663 5.48153501 0 2 C0 1.34 0 0.68 0 0 Z " fill="#212121" transform="translate(210,305)"/>
<path d="M0 0 C0.66 0.66 1.32 1.32 2 2 C1.21625 2.721875 0.4325 3.44375 -0.375 4.1875 C-4.39015029 8.8851121 -4.41105663 15.07540551 -5 21 C-5.33 21 -5.66 21 -6 21 C-7.03287445 14.11831844 -7.67709127 9.08622004 -4 3 C-1.8125 1.0625 -1.8125 1.0625 0 0 Z " fill="#1B1B1B" transform="translate(282,240)"/>
<path d="M0 0 C0.66 0.66 1.32 1.32 2 2 C1.814375 2.598125 1.62875 3.19625 1.4375 3.8125 C0.80681092 6.96594539 2.3641127 8.34168314 4 11 C3.67 11.99 3.34 12.98 3 14 C-5 4.28571429 -5 4.28571429 -5 1 C-2.625 0.375 -2.625 0.375 0 0 Z " fill="#161616" transform="translate(188,312)"/>
<path d="M0 0 C1.50433594 0.01353516 1.50433594 0.01353516 3.0390625 0.02734375 C3.80992187 0.03894531 4.58078125 0.05054688 5.375 0.0625 C4.715 1.3825 4.055 2.7025 3.375 4.0625 C1.91757537 4.14346803 0.45887193 4.20167774 -1 4.25 C-1.81210938 4.28480469 -2.62421875 4.31960938 -3.4609375 4.35546875 C-4.17507812 4.25878906 -4.88921875 4.16210938 -5.625 4.0625 C-6.285 3.0725 -6.945 2.0825 -7.625 1.0625 C-4.98041621 -0.25979189 -2.94738699 -0.03427194 0 0 Z " fill="#FBFBFB" transform="translate(229.625,311.9375)"/>
<path d="M0 0 C0.66 1.32 1.32 2.64 2 4 C-0.80804268 6.96404505 -3.18315774 9.44499019 -7 11 C-7 11.66 -7 12.32 -7 13 C-8.32 13.33 -9.64 13.66 -11 14 C-11.33 13.34 -11.66 12.68 -12 12 C-11.46890625 11.63648438 -10.9378125 11.27296875 -10.390625 10.8984375 C-5.84855246 7.66594062 -2.76940714 4.8464625 0 0 Z " fill="#272727" transform="translate(357,208)"/>
<path d="M0 0 C4.05819183 0.65503282 7.53971282 1.94559121 11.3125 3.5625 C12.38113281 4.01753906 13.44976562 4.47257812 14.55078125 4.94140625 C15.76314453 5.46541016 15.76314453 5.46541016 17 6 C16.34 6.66 15.68 7.32 15 8 C12.68197845 7.24327813 10.3715787 6.47065692 8.0625 5.6875 C7.40314453 5.47416016 6.74378906 5.26082031 6.06445312 5.04101562 C4.34313703 4.44958907 2.66668068 3.73136173 1 3 C0.67 2.01 0.34 1.02 0 0 Z " fill="#1F1F1F" transform="translate(391,400)"/>
<path d="M0 0 C0.66 0.99 1.32 1.98 2 3 C1.62109375 4.8359375 1.62109375 4.8359375 1 7 C0.97139183 9.85264313 1.06461476 12.68810455 1.16015625 15.5390625 C1 18 1 18 -1 20 C-3.51899591 14.96200818 -2.40187844 7.50704417 -1 2.25 C-0.67 1.5075 -0.34 0.765 0 0 Z " fill="#121212" transform="translate(412,281)"/>
<path d="M0 0 C0.66 0.33 1.32 0.66 2 1 C1.57847656 1.68707031 1.15695312 2.37414062 0.72265625 3.08203125 C0.17480469 3.98308594 -0.37304688 4.88414062 -0.9375 5.8125 C-1.48277344 6.70582031 -2.02804687 7.59914063 -2.58984375 8.51953125 C-4.11009578 11.00703562 -4.11009578 11.00703562 -5 14 C-5.66 14 -6.32 14 -7 14 C-7.4375 11.5 -7.4375 11.5 -7 8 C-4.91536818 5.08465023 -2.52494637 2.53782875 0 0 Z " fill="#161616" transform="translate(399,264)"/>
<path d="M0 0 C1.98 0.99 1.98 0.99 4 2 C4 2.66 4 3.32 4 4 C5.0828125 4.3403125 5.0828125 4.3403125 6.1875 4.6875 C9.53209313 6.24831013 11.51603959 8.3031287 14 11 C13.67 11.66 13.34 12.32 13 13 C9.00180966 10.82955381 6.16411703 8.24738327 3 5 C2.01 4.34 1.02 3.68 0 3 C0 2.01 0 1.02 0 0 Z " fill="#292929" transform="translate(220,259)"/>
<path d="M0 0 C0.33 0 0.66 0 1 0 C1.22174933 1.45635371 1.42698698 2.91522956 1.625 4.375 C1.74101562 5.18710938 1.85703125 5.99921875 1.9765625 6.8359375 C1.98429687 7.55007812 1.99203125 8.26421875 2 9 C1.34 9.66 0.68 10.32 0 11 C-0.33 10.67 -0.66 10.34 -1 10 C-1.33 10.66 -1.66 11.32 -2 12 C-2.99 12 -3.98 12 -5 12 C-3.68938409 7.76570244 -2.05643741 3.92592596 0 0 Z " fill="#222222" transform="translate(265,195)"/>
<path d="M0 0 C0 0.66 0 1.32 0 2 C0.66 1.67 1.32 1.34 2 1 C6.16735187 0.84274144 9.94441928 1.01682892 14 2 C14 2.33 14 2.66 14 3 C8.57818523 4.0188167 4.00105558 3.86360471 -1.4375 3.0625 C-2.16904297 2.96259766 -2.90058594 2.86269531 -3.65429688 2.75976562 C-5.43738769 2.51502767 -7.21888442 2.25872147 -9 2 C-9 1.67 -9 1.34 -9 1 C-5.846632 0.29925156 -3.27275026 0 0 0 Z " fill="#171717" transform="translate(369,354)"/>
<path d="M0 0 C0.66 0.66 1.32 1.32 2 2 C0.02 6.29 -1.96 10.58 -4 15 C-4.66 15 -5.32 15 -6 15 C-6.33 15.66 -6.66 16.32 -7 17 C-6.37954537 12.76677156 -4.89476441 9.47709705 -2.9375 5.6875 C-2.38964844 4.61886719 -1.84179688 3.55023438 -1.27734375 2.44921875 C-0.64505859 1.23685547 -0.64505859 1.23685547 0 0 Z " fill="#181818" transform="translate(434,325)"/>
<path d="M0 0 C3.36720387 1.39332574 4.9859524 2.9789286 7 6 C6.67 6.66 6.34 7.32 6 8 C2.06326356 6.68775452 -0.22719294 5.08089673 -3 2 C-2.01 1.34 -1.02 0.68 0 0 Z " fill="#E8E8E8" transform="translate(196,300)"/>
<path d="M0 0 C2 3 2 3 1.5390625 6.13671875 C1.23742187 7.30847656 0.93578125 8.48023438 0.625 9.6875 C0.32851563 10.86699219 0.03203125 12.04648437 -0.2734375 13.26171875 C-0.51320313 14.16535156 -0.75296875 15.06898438 -1 16 C-2.32 15.34 -3.64 14.68 -5 14 C-4.01 13.67 -3.02 13.34 -2 13 C-2.04125 11.783125 -2.0825 10.56625 -2.125 9.3125 C-2.13754508 5.78105873 -1.59998217 3.19996434 0 0 Z " fill="#131313" transform="translate(423,354)"/>
<path d="M0 0 C0 0.99 0 1.98 0 3 C-5.82254243 4.96818336 -10.83381819 6.40214229 -17 6 C-12.23435918 3.41861122 -5.4634113 0 0 0 Z " fill="#222222" transform="translate(231,370)"/>
<path d="M0 0 C1.93833996 0.08715017 3.8757429 0.19532964 5.8125 0.3125 C7.43091797 0.39951172 7.43091797 0.39951172 9.08203125 0.48828125 C12.17497517 1.03068507 13.13022903 1.55289624 15 4 C9.88208358 4.10662326 5.07071901 3.71167986 0 3 C0 2.01 0 1.02 0 0 Z " fill="#141414" transform="translate(163,267)"/>
<path d="M0 0 C0.3125 2.3125 0.3125 2.3125 0 5 C-2.86103423 7.24243223 -4.34076304 8 -8 8 C-6.65580512 3.85539913 -4.87800266 0 0 0 Z " fill="#191919" transform="translate(440,272)"/>
<path d="M0 0 C4 2 4 2 6 4 C5.01 4.495 5.01 4.495 4 5 C4.66 6.98 5.32 8.96 6 11 C5.01 11.66 4.02 12.32 3 13 C2.01 8.71 1.02 4.42 0 0 Z " fill="#0F0F0F" transform="translate(208,379)"/>
<path d="M0 0 C1.98 0 3.96 0 6 0 C5.278125 0.70125 4.55625 1.4025 3.8125 2.125 C1.00176187 4.92770745 -1.49516226 7.92262792 -4 11 C-4.99 10.34 -5.98 9.68 -7 9 C-6.34 9 -5.68 9 -5 9 C-4.67 8.01 -4.34 7.02 -4 6 C-2.66666667 4.66666667 -1.33333333 3.33333333 0 2 C0 1.34 0 0.68 0 0 Z " fill="#212121" transform="translate(457,291)"/>
<path d="M0 0 C0 3.61656862 -1.02130767 5.0319615 -3 8 C-3.66 8.66 -4.32 9.32 -5 10 C-5.99 10 -6.98 10 -8 10 C-10.15028304 10.94978897 -10.15028304 10.94978897 -12 12 C-8.57833482 7.29521038 -4.42094803 3.72346836 0 0 Z " fill="#DDDDDD" transform="translate(468,286)"/>
<path d="M0 0 C1.89213369 2.38573379 3.02391783 4.07175348 4 7 C3.38125 7.12375 2.7625 7.2475 2.125 7.375 C-0.19120832 7.87197356 -0.19120832 7.87197356 -2 10 C-2.6875 8.375 -2.6875 8.375 -3 6 C-1.5625 2.75 -1.5625 2.75 0 0 Z " fill="#222222" transform="translate(214,248)"/>
<path d="M0 0 C0.93423645 3.01031744 1.04449911 3.86650268 0 7 C-1.175625 7.2165625 -1.175625 7.2165625 -2.375 7.4375 C-4.96421018 7.87798925 -4.96421018 7.87798925 -7 9 C-7 6 -7 6 -5.46875 4.39453125 C-4.49421875 3.61142578 -4.49421875 3.61142578 -3.5 2.8125 C-2.8503125 2.28269531 -2.200625 1.75289063 -1.53125 1.20703125 C-1.0259375 0.80871094 -0.520625 0.41039062 0 0 Z " fill="#171717" transform="translate(439,297)"/>
<path d="M0 0 C1.27310312 0.93441535 2.543388 1.87267111 3.8125 2.8125 C4.52019531 3.33457031 5.22789062 3.85664063 5.95703125 4.39453125 C7.78531393 5.83128877 9.39896688 7.31815763 11 9 C10.01 9.495 10.01 9.495 9 10 C2.5 6.75 2.5 6.75 0 3 C0 2.01 0 1.02 0 0 Z " fill="#1C1C1C" transform="translate(231,295)"/>
<path d="M0 0 C1.98 0.66 3.96 1.32 6 2 C3.82575883 4.50037734 2.26954202 5.43628586 -1 6 C-1 5.34 -1 4.68 -1 4 C-1.66 3.67 -2.32 3.34 -3 3 C-2.01 2.01 -1.02 1.02 0 0 Z " fill="#EFEFEF" transform="translate(244,307)"/>
<path d="M0 0 C3.25524265 3.02272532 5.61820737 6.25718301 8 10 C7.01 10.33 6.02 10.66 5 11 C1 6.25 1 6.25 1 4 C0.34 4 -0.32 4 -1 4 C-0.67 2.68 -0.34 1.36 0 0 Z " fill="#1F1F1F" transform="translate(279,269)"/>
<path d="M0 0 C-0.99 0 -1.98 0 -3 0 C-3 0.66 -3 1.32 -3 2 C-4.62171239 2.38897161 -6.24754925 2.76078298 -7.875 3.125 C-8.77992188 3.33382813 -9.68484375 3.54265625 -10.6171875 3.7578125 C-11.40351563 3.83773438 -12.18984375 3.91765625 -13 4 C-13.66 3.34 -14.32 2.68 -15 2 C-13.25364835 1.46706165 -11.50272348 0.94909337 -9.75 0.4375 C-8.77546875 0.14746094 -7.8009375 -0.14257812 -6.796875 -0.44140625 C-4.03756068 -0.99249836 -2.6087176 -0.93789609 0 0 Z " fill="#131313" transform="translate(249,398)"/>
<path d="M0 0 C0.33 0.99 0.66 1.98 1 3 C-6.28571429 6.57142857 -6.28571429 6.57142857 -11 5 C-7.41247258 3.13448574 -3.72187807 1.57464072 0 0 Z " fill="#1E1E1E" transform="translate(331,312)"/>
<path d="M0 0 C3.057952 1.73559438 5.63379989 3.38472619 8 6 C7.67 6.99 7.34 7.98 7 9 C2.97449681 7.6581656 2.11714364 5.5772427 0 2 C0 1.34 0 0.68 0 0 Z " fill="#2A2A2A" transform="translate(287,224)"/>
<path d="M0 0 C0.66 0.33 1.32 0.66 2 1 C2 3.31 2 5.62 2 8 C-1.465 6.02 -1.465 6.02 -5 4 C-4.67 3.34 -4.34 2.68 -4 2 C-2.68 2 -1.36 2 0 2 C0 1.34 0 0.68 0 0 Z " fill="#181818" transform="translate(197,285)"/>
<path d="M0 0 C0.66 0.66 1.32 1.32 2 2 C0.68 5.3 -0.64 8.6 -2 12 C-2.66 11.67 -3.32 11.34 -4 11 C-3.48964169 6.6109185 -2.47785723 3.66291938 0 0 Z " fill="#191919" transform="translate(365,252)"/>
<path d="M0 0 C0.66 0 1.32 0 2 0 C4.50793928 3.76190891 4.29221046 5.89608471 3.6875 10.25 C3.460625 10.8275 3.23375 11.405 3 12 C2.01 12.33 1.02 12.66 0 13 C0 8.71 0 4.42 0 0 Z " fill="#272727" transform="translate(400,275)"/>
<path d="M0 0 C-0.33 0.66 -0.66 1.32 -1 2 C-1.66 2 -2.32 2 -3 2 C-3.33 2.66 -3.66 3.32 -4 4 C-6.31 4 -8.62 4 -11 4 C-11.33 3.34 -11.66 2.68 -12 2 C-10.37787941 1.47026689 -8.75218416 0.95146893 -7.125 0.4375 C-6.22007812 0.14746094 -5.31515625 -0.14257812 -4.3828125 -0.44140625 C-2 -1 -2 -1 0 0 Z " fill="#171717" transform="translate(471,265)"/>
<path d="M0 0 C3.63 1.65 7.26 3.3 11 5 C10.67 5.66 10.34 6.32 10 7 C5.80639551 6.32902328 2.59665648 4.1441606 -1 2 C-0.67 1.34 -0.34 0.68 0 0 Z " fill="#1C1C1C" transform="translate(146,259)"/>
<path d="M0 0 C5.28 0.66 10.56 1.32 16 2 C16 2.33 16 2.66 16 3 C10.16524985 3.85330338 5.55139349 4.48351814 0 2 C0 1.34 0 0.68 0 0 Z " fill="#1C1C1C" transform="translate(386,307)"/>
<path d="M0 0 C-0.33 0.99 -0.66 1.98 -1 3 C-1.66 3 -2.32 3 -3 3 C-3.33 3.99 -3.66 4.98 -4 6 C-5.65 6.33 -7.3 6.66 -9 7 C-7.68534669 3.05604006 -4.38536841 0 0 0 Z " fill="#1D1D1D" transform="translate(391,300)"/>
<path d="M0 0 C4.7517398 0.43197635 6.92000054 1.32769295 10 5 C9.34 5.66 8.68 6.32 8 7 C8 6.34 8 5.68 8 5 C7.01 4.67 6.02 4.34 5 4 C5 3.34 5 2.68 5 2 C1.39007621 2.65585189 1.39007621 2.65585189 -2 4 C-1.34 2.68 -0.68 1.36 0 0 Z " fill="#DEDEDE" transform="translate(188,288)"/>
<path d="M0 0 C3.60296594 -0.41176754 4.78402067 -0.1535853 7.8125 2 C8.534375 2.66 9.25625 3.32 10 4 C9.67 5.98 9.34 7.96 9 10 C7 8 7 8 6.1875 5.5 C5.20271537 2.76446304 5.20271537 2.76446304 2.375 1.6875 C1.59125 1.460625 0.8075 1.23375 0 1 C0 0.67 0 0.34 0 0 Z " fill="#101010" transform="translate(434,286)"/>
<path d="M0 0 C0.33 0.66 0.66 1.32 1 2 C0.0625 4.625 0.0625 4.625 -1 7 C-1.66 7 -2.32 7 -3 7 C-3.33 7.99 -3.66 8.98 -4 10 C-4.99 9.67 -5.98 9.34 -7 9 C-4.69 6.03 -2.38 3.06 0 0 Z " fill="#252525" transform="translate(342,275)"/>
<path d="M0 0 C2.96404505 2.80804268 5.44499019 5.18315774 7 9 C6.01 9 5.02 9 4 9 C2.61328125 7.46875 2.61328125 7.46875 1.3125 5.5 C0.87550781 4.8503125 0.43851563 4.200625 -0.01171875 3.53125 C-0.50091797 2.77328125 -0.50091797 2.77328125 -1 2 C-0.67 1.34 -0.34 0.68 0 0 Z " fill="#171717" transform="translate(145,268)"/>
<path d="M0 0 C0.99 0.33 1.98 0.66 3 1 C3 1.66 3 2.32 3 3 C3.66 3 4.32 3 5 3 C4.67 4.32 4.34 5.64 4 7 C-0.875 4.375 -0.875 4.375 -2 1 C-1.34 0.67 -0.68 0.34 0 0 Z " fill="#D6D6D6" transform="translate(137,249)"/>
<path d="M0 0 C3.71888239 0.50712033 6.73454239 1.11608215 10 3 C9.01 3.66 8.02 4.32 7 5 C4.95703125 4.5390625 4.95703125 4.5390625 2.8125 3.625 C2.09707031 3.32851563 1.38164062 3.03203125 0.64453125 2.7265625 C0.10183594 2.48679687 -0.44085938 2.24703125 -1 2 C-0.67 1.34 -0.34 0.68 0 0 Z " fill="#252525" transform="translate(409,363)"/>
<path d="M0 0 C-0.33 0.99 -0.66 1.98 -1 3 C-3.64 3 -6.28 3 -9 3 C-9 2.34 -9 1.68 -9 1 C-3.375 -1.125 -3.375 -1.125 0 0 Z " fill="#2E2E2E" transform="translate(331,299)"/>
<path d="M0 0 C0.99 0.33 1.98 0.66 3 1 C2.01 1.33 1.02 1.66 0 2 C-0.73323796 4.01508358 -0.73323796 4.01508358 -1 6 C-1.66 6 -2.32 6 -3 6 C-3 6.66 -3 7.32 -3 8 C-4.32 7.67 -5.64 7.34 -7 7 C-4.69 4.69 -2.38 2.38 0 0 Z " fill="#EBEBEB" transform="translate(476,278)"/>
<path d="M0 0 C0.66 1.32 1.32 2.64 2 4 C-0.33333333 6.33333333 -2.66666667 8.66666667 -5 11 C-5.66 10.67 -6.32 10.34 -7 10 C-6.401875 9.278125 -5.80375 8.55625 -5.1875 7.8125 C-3.22577804 5.29028605 -1.58276017 2.7698303 0 0 Z " fill="#DCDCDC" transform="translate(485,265)"/>
<path d="M0 0 C2 4 2 4 1.5390625 6.140625 C1.23742187 6.83671875 0.93578125 7.5328125 0.625 8.25 C0.32851563 8.95640625 0.03203125 9.6628125 -0.2734375 10.390625 C-0.51320313 10.92171875 -0.75296875 11.4528125 -1 12 C-1.99 11.01 -2.98 10.02 -4 9 C-2.68 6.03 -1.36 3.06 0 0 Z " fill="#161616" transform="translate(370,238)"/>
<path d="M0 0 C0.90105469 0.11085938 1.80210937 0.22171875 2.73046875 0.3359375 C3.76107422 0.47902344 3.76107422 0.47902344 4.8125 0.625 C4.1525 1.285 3.4925 1.945 2.8125 2.625 C0.2109375 2.6015625 0.2109375 2.6015625 -2.8125 2.25 C-3.81539063 2.13914062 -4.81828125 2.02828125 -5.8515625 1.9140625 C-7.00785156 1.77097656 -7.00785156 1.77097656 -8.1875 1.625 C-4.73535147 -0.67643236 -3.95270676 -0.51333854 0 0 Z " fill="#191919" transform="translate(355.1875,392.375)"/>
<path d="M0 0 C0 4.38968456 -2.12805101 5.76905739 -5 9 C-6.32 8.34 -7.64 7.68 -9 7 C-8.071875 6.401875 -7.14375 5.80375 -6.1875 5.1875 C-3.79745282 3.54727155 -1.91529747 2.1281083 0 0 Z " fill="#1E1E1E" transform="translate(254,305)"/>
<path d="M0 0 C3.67230705 3.07999946 4.56802365 5.2482602 5 10 C1.32769295 6.92000054 0.43197635 4.7517398 0 0 Z " fill="#1F1F1F" transform="translate(287,279)"/>
<path d="M0 0 C-0.33 0.99 -0.66 1.98 -1 3 C-4.0625 4.1875 -4.0625 4.1875 -7 5 C-7.33 3.68 -7.66 2.36 -8 1 C-2.25 0 -2.25 0 0 0 Z " fill="#1B1B1B" transform="translate(224,404)"/>
<path d="M0 0 C-0.99 1.485 -0.99 1.485 -2 3 C-8.93 2.505 -8.93 2.505 -16 2 C-16 1.67 -16 1.34 -16 1 C-14.27111445 0.83044205 -12.54187557 0.66448486 -10.8125 0.5 C-9.84957031 0.4071875 -8.88664062 0.314375 -7.89453125 0.21875 C-5.24812333 0.01875156 -2.65239135 -0.03879183 0 0 Z " fill="#CFCFCF" transform="translate(409,310)"/>
<path d="M0 0 C0.99 0.33 1.98 0.66 3 1 C1.35 2.98 -0.3 4.96 -2 7 C-2.66 6.67 -3.32 6.34 -4 6 C-2.84826645 3.53199953 -1.95216435 1.95216435 0 0 Z " fill="#1F1F1F" transform="translate(469,281)"/>
<path d="M0 0 C0.66 0.33 1.32 0.66 2 1 C1.34 2.98 0.68 4.96 0 7 C-2.475 6.01 -2.475 6.01 -5 5 C-3.35 3.35 -1.7 1.7 0 0 Z " fill="#1D1D1D" transform="translate(489,252)"/>
<path d="M0 0 C1.42944945 2.35438733 2.08661261 3.48032433 1.625 6.25 C1.41875 6.8275 1.2125 7.405 1 8 C0.34 8 -0.32 8 -1 8 C-1.33 8.99 -1.66 9.98 -2 11 C-1.85957123 9.35369672 -1.71250671 7.70795821 -1.5625 6.0625 C-1.48128906 5.14597656 -1.40007812 4.22945313 -1.31640625 3.28515625 C-1 1 -1 1 0 0 Z " fill="#141414" transform="translate(414,386)"/>
<path d="M0 0 C-0.99 0 -1.98 0 -3 0 C-3 0.66 -3 1.32 -3 2 C-5.8125 2.625 -5.8125 2.625 -9 3 C-9.99 2.34 -10.98 1.68 -12 1 C-3.96428571 -1.27678571 -3.96428571 -1.27678571 0 0 Z " fill="#171717" transform="translate(237,359)"/>
<path d="M0 0 C1.69752187 0.25245197 3.38471545 0.57645775 5.0625 0.9375 C5.98160156 1.13214844 6.90070313 1.32679688 7.84765625 1.52734375 C8.91306641 1.76130859 8.91306641 1.76130859 10 2 C8 4 8 4 4.375 4.125 C3.26125 4.08375 2.1475 4.0425 1 4 C1 3.34 1 2.68 1 2 C0.34 1.67 -0.32 1.34 -1 1 C-0.67 0.67 -0.34 0.34 0 0 Z " fill="#1A1A1A" transform="translate(298,314)"/>
<path d="M0 0 C0.99 0 1.98 0 3 0 C2.375 1.9375 2.375 1.9375 1 4 C-2 4.875 -2 4.875 -5 5 C-5.66 4.34 -6.32 3.68 -7 3 C-3.535 2.505 -3.535 2.505 0 2 C0 1.34 0 0.68 0 0 Z " fill="#232323" transform="translate(242,305)"/>
<path d="M0 0 C3.25543229 0.34879632 4.01873107 1.02133261 6.25 3.5625 C6.8275 4.366875 7.405 5.17125 8 6 C4 6 4 6 1.75 4.125 C0 2 0 2 0 0 Z " fill="#212121" transform="translate(368,303)"/>
<path d="M0 0 C3.62528568 -0.20140476 5.86501708 0.14223235 9 2 C9 2.66 9 3.32 9 4 C4.545 3.01 4.545 3.01 0 2 C0 1.34 0 0.68 0 0 Z " fill="#161616" transform="translate(210,305)"/>
<path d="M0 0 C2.52588702 2.36292656 3.88820837 3.66462511 5 7 C4.01 7.33 3.02 7.66 2 8 C0.4375 6.25 0.4375 6.25 -1 4 C-0.6875 1.75 -0.6875 1.75 0 0 Z " fill="#292929" transform="translate(283,301)"/>
<path d="M0 0 C6.875 3.75 6.875 3.75 8 6 C7.01 6.33 6.02 6.66 5 7 C2.7363436 5.59554165 0.9791315 3.8032087 -1 2 C-0.67 1.34 -0.34 0.68 0 0 Z " fill="#1C1C1C" transform="translate(189,300)"/>
<path d="M0 0 C0.78375 0.185625 1.5675 0.37125 2.375 0.5625 C4.97089775 1.25962266 4.97089775 1.25962266 7 0 C7.33 1.65 7.66 3.3 8 5 C4.5625 4.1875 4.5625 4.1875 1 3 C0.67 2.01 0.34 1.02 0 0 Z " fill="#1D1D1D" transform="translate(226,273)"/>
<path d="M0 0 C3.37503669 1.1858237 5.64722731 2.27573689 8 5 C5 6 5 6 2.875 5.3125 C1 4 1 4 0.25 1.875 C0.1675 1.25625 0.085 0.6375 0 0 Z " fill="#1D1D1D" transform="translate(278,219)"/>
<path d="M0 0 C3.34373475 0.55728913 6.03312999 1.35173889 9 3 C8.67 3.99 8.34 4.98 8 6 C6.02 5.01 4.04 4.02 2 3 C2 2.34 2 1.68 2 1 C1.34 0.67 0.68 0.34 0 0 Z " fill="#151515" transform="translate(199,308)"/>
<path d="M0 0 C0 0.99 0 1.98 0 3 C-0.66 3 -1.32 3 -2 3 C-2.33 3.66 -2.66 4.32 -3 5 C-4.65 4.67 -6.3 4.34 -8 4 C-5.60952106 1.60952106 -3.45854519 0 0 0 Z " fill="#1B1B1B" transform="translate(426,308)"/>
<path d="M0 0 C3.87132028 0.57352893 6.08172796 2.48704352 9 5 C5 5 5 5 2.25 2.5 C1.5075 1.675 0.765 0.85 0 0 Z " fill="#131313" transform="translate(286,308)"/>
<path d="M0 0 C0.99 0 1.98 0 3 0 C5.1875 2.5 5.1875 2.5 7 5 C6.34 5.66 5.68 6.32 5 7 C3.29115995 5.37660195 1.62553283 3.70680947 0 2 C0 1.34 0 0.68 0 0 Z " fill="#292929" transform="translate(290,294)"/>
<path d="M0 0 C0.33 0.66 0.66 1.32 1 2 C1.99 2.33 2.98 2.66 4 3 C4.6875 5.0625 4.6875 5.0625 5 7 C4.01 7.495 4.01 7.495 3 8 C1.02 4.535 1.02 4.535 -1 1 C-0.67 0.67 -0.34 0.34 0 0 Z " fill="#171717" transform="translate(179,305)"/>
<path d="M0 0 C3 1 3 1 4.25 2.875 C5 5 5 5 4 8 C2.35 5.69 0.7 3.38 -1 1 C-0.67 0.67 -0.34 0.34 0 0 Z " fill="#1F1F1F" transform="translate(172,297)"/>
<path d="M0 0 C1.98 0.99 1.98 0.99 4 2 C4 2.66 4 3.32 4 4 C4.99 4.33 5.98 4.66 7 5 C7 5.66 7 6.32 7 7 C4.50638429 5.79618552 2.31856917 4.54571278 0 3 C0 2.01 0 1.02 0 0 Z " fill="#202020" transform="translate(220,259)"/>
<path d="M0 0 C2.31 1.98 4.62 3.96 7 6 C6.67 6.66 6.34 7.32 6 8 C5.34 8 4.68 8 4 8 C4 7.34 4 6.68 4 6 C3.01 5.67 2.02 5.34 1 5 C0.67 3.35 0.34 1.7 0 0 Z " fill="#292929" transform="translate(271,212)"/>
<path d="M0 0 C1.3921875 0.2784375 1.3921875 0.2784375 2.8125 0.5625 C6.01343771 1.24123881 6.01343771 1.24123881 9 0 C9.33 0.99 9.66 1.98 10 3 C4.58461538 3.36923077 4.58461538 3.36923077 1.625 1.5 C1.08875 1.005 0.5525 0.51 0 0 Z " fill="#101010" transform="translate(384,357)"/>
<path d="M0 0 C2.625 0.9375 2.625 0.9375 5 2 C5 2.66 5 3.32 5 4 C3.02 4 1.04 4 -1 4 C-1.33 3.01 -1.66 2.02 -2 1 C-1.34 0.67 -0.68 0.34 0 0 Z " fill="#1B1B1B" transform="translate(298,298)"/>
<path d="M0 0 C0.33 1.32 0.66 2.64 1 4 C0.34 4 -0.32 4 -1 4 C-1.33 4.99 -1.66 5.98 -2 7 C-2.99 7.33 -3.98 7.66 -5 8 C-3.62845496 5.04590299 -2.01136276 2.55991624 0 0 Z " fill="#202020" transform="translate(397,292)"/>
<path d="M0 0 C-0.66 2.31 -1.32 4.62 -2 7 C-2.66 7 -3.32 7 -4 7 C-4 5.02 -4 3.04 -4 1 C-2 0 -2 0 0 0 Z " fill="#323232" transform="translate(396,271)"/>
<path d="M0 0 C0.66 0.33 1.32 0.66 2 1 C1.39816251 3.02045442 0.72693904 5.02111039 0 7 C-0.99 7.495 -0.99 7.495 -2 8 C-2.66 7.34 -3.32 6.68 -4 6 C-2.68 4.02 -1.36 2.04 0 0 Z " fill="#242424" transform="translate(347,268)"/>
<path d="M0 0 C0.66 0.33 1.32 0.66 2 1 C1.67 4.96 1.34 8.92 1 13 C0.67 13 0.34 13 0 13 C-0.19466332 11.20909747 -0.38051213 9.41723495 -0.5625 7.625 C-0.66691406 6.62726563 -0.77132813 5.62953125 -0.87890625 4.6015625 C-1 2 -1 2 0 0 Z " fill="#3E3E3E" transform="translate(276,248)"/>
<path d="M0 0 C0 0.99 0 1.98 0 3 C-1.98 3.66 -3.96 4.32 -6 5 C-6.33 4.34 -6.66 3.68 -7 3 C-2.25 0 -2.25 0 0 0 Z " fill="#202020" transform="translate(416,304)"/>
<path d="M0 0 C0.66 0.33 1.32 0.66 2 1 C2 2.98 2 4.96 2 7 C1.01 6.67 0.02 6.34 -1 6 C-0.67 4.02 -0.34 2.04 0 0 Z " fill="#242424" transform="translate(184,289)"/>
<path d="M0 0 C1.41377341 2.63904371 2.37240135 5.07120629 3 8 C2.01 7.67 1.02 7.34 0 7 C-1.1875 3.9375 -1.1875 3.9375 -2 1 C-1.34 0.67 -0.68 0.34 0 0 Z " fill="#1A1A1A" transform="translate(262,253)"/>
<path d="M0 0 C0.66 0.33 1.32 0.66 2 1 C1 4 1 4 -2.0625 5.6875 C-3.031875 6.120625 -4.00125 6.55375 -5 7 C-3.70700306 4.11562221 -2.34058637 2.12780579 0 0 Z " fill="#E3E3E3" transform="translate(284,241)"/>
</svg>
